<?xml version="1.0" standalone="no"?>
<!DOCTYPE svg PUBLIC "-//W3C//DTD SVG 20010904//EN"
 "http://www.w3.org/TR/2001/REC-SVG-20010904/DTD/svg10.dtd">
<svg version="1.0" xmlns="http://www.w3.org/2000/svg"
 width="639.000000pt" height="634.000000pt" viewBox="0 0 639.000000 634.000000"
 preserveAspectRatio="xMidYMid meet">

<g transform="translate(0.000000,634.000000) scale(0.100000,-0.100000)"
fill="#000000" stroke="none">
<path d="M2576 6332 c5 -5 45 -21 89 -37 336 -118 596 -246 1023 -501 67 -41
124 -74 126 -74 2 0 41 -22 87 -48 46 -27 129 -72 184 -102 55 -29 105 -56
110 -60 25 -18 413 -214 530 -268 190 -87 245 -112 250 -112 2 0 33 -14 69
-30 289 -134 849 -316 1181 -384 72 -15 138 -28 148 -30 11 -3 17 2 17 15 0
11 -9 20 -22 23 -313 64 -495 112 -750 197 -462 154 -1002 397 -1518 682 -201
110 -232 128 -515 295 -294 172 -508 278 -807 396 -81 32 -132 46 -165 46 -26
0 -43 -4 -37 -8z"/>
<path d="M2855 6297 c148 -60 267 -113 413 -186 111 -55 193 -102 549 -309
804 -468 1559 -799 2218 -972 121 -32 332 -80 351 -80 2 0 4 9 4 20 0 12 -8
21 -22 24 -373 72 -825 212 -1198 371 -47 20 -105 45 -130 55 -263 107 -781
372 -1200 613 -96 56 -240 139 -320 184 -158 92 -363 194 -535 269 -85 36
-125 48 -175 51 l-65 4 110 -44z"/>
<path d="M2941 6336 c2 -2 65 -29 139 -61 171 -74 358 -170 580 -300 431 -251
634 -361 975 -530 229 -113 282 -137 530 -242 362 -152 701 -265 1048 -348
171 -41 177 -41 177 -17 0 15 -18 23 -102 41 -426 94 -922 268 -1409 492 -161
74 -589 292 -754 385 -236 131 -264 147 -450 256 -177 104 -459 250 -582 302
-37 16 -81 26 -109 26 -26 0 -45 -2 -43 -4z"/>
<path d="M3210 6291 c187 -86 348 -171 540 -285 122 -73 305 -178 405 -231 39
-21 86 -47 105 -58 90 -51 511 -261 650 -324 498 -227 879 -363 1308 -468 165
-40 172 -41 172 -17 0 14 -27 24 -157 56 -748 179 -1546 534 -2576 1142 -59
35 -184 102 -277 149 -149 75 -176 85 -222 85 l-53 0 105 -49z"/>
<path d="M3431 6262 c85 -43 235 -126 334 -184 972 -569 1806 -934 2508 -1098
l117 -27 0 22 c0 20 -10 24 -97 45 -497 117 -1036 321 -1613 609 -218 110
-275 139 -480 251 -122 67 -219 122 -473 269 -248 143 -348 191 -403 191 -46
0 -46 -1 107 -78z"/>
<path d="M3555 6276 c66 -34 219 -120 339 -190 883 -513 1687 -865 2356 -1031
58 -14 113 -28 123 -31 13 -4 17 1 17 20 0 22 -6 26 -72 41 -567 129 -1339
446 -2063 848 -302 168 -326 182 -440 249 -224 132 -278 158 -331 158 l-49 0
120 -64z"/>
<path d="M3601 6336 c2 -3 67 -40 144 -83 77 -44 183 -104 235 -135 52 -30
118 -68 145 -83 28 -15 89 -49 136 -75 218 -122 614 -318 894 -445 375 -169
841 -331 1178 -410 57 -13 57 -13 57 9 0 21 -11 26 -107 51 -328 84 -817 257
-1117 395 -33 15 -121 56 -195 89 -254 117 -558 277 -958 505 -339 193 -324
185 -372 186 -24 0 -42 -2 -40 -4z"/>
<path d="M3750 6336 c0 -6 407 -238 605 -346 224 -122 752 -383 851 -420 16
-6 42 -18 59 -25 217 -100 736 -285 970 -345 66 -17 128 -33 138 -36 13 -4 17
1 17 20 0 21 -7 27 -42 36 -307 79 -719 217 -916 306 -29 13 -54 24 -57 24
-17 0 -391 173 -614 284 -300 150 -391 199 -712 382 -181 103 -224 124 -258
124 -23 0 -41 -2 -41 -4z"/>
<path d="M3890 6337 c0 -3 12 -12 28 -20 15 -7 78 -44 141 -80 62 -37 115 -67
117 -67 2 0 27 -14 56 -31 29 -17 100 -56 158 -87 58 -30 110 -58 115 -62 21
-16 399 -203 565 -280 161 -75 501 -220 515 -220 3 0 25 -8 48 -19 88 -39 337
-123 537 -181 41 -12 95 -28 120 -35 95 -28 100 -28 100 0 0 14 -6 27 -12 29
-7 2 -67 19 -133 37 -289 78 -714 234 -1040 380 -138 62 -698 340 -805 400
-30 17 -100 55 -155 86 -55 31 -134 76 -175 101 -56 34 -88 46 -127 50 -29 2
-53 2 -53 -1z"/>
<path d="M4030 6336 c0 -3 12 -11 28 -19 15 -8 131 -72 257 -142 206 -113 720
-374 850 -432 28 -12 82 -36 120 -53 296 -132 719 -285 1010 -365 33 -9 68
-18 78 -21 13 -4 17 1 17 20 0 23 -8 27 -87 50 -327 96 -711 237 -1038 380
-146 64 -648 311 -770 379 -363 202 -374 207 -420 207 -25 0 -45 -2 -45 -4z"/>
<path d="M4171 6336 c20 -17 526 -288 679 -363 434 -212 689 -322 1015 -438
145 -51 412 -137 467 -149 14 -3 33 -9 42 -12 12 -5 16 0 16 23 0 27 -3 29
-87 52 -509 140 -1205 437 -1852 791 -164 89 -189 100 -234 100 -28 0 -48 -2
-46 -4z"/>
<path d="M4321 6336 c28 -26 658 -352 864 -446 101 -47 358 -157 435 -186 36
-14 79 -32 95 -39 90 -40 447 -160 608 -205 l67 -19 0 28 c0 25 -5 29 -77 50
-291 85 -647 216 -938 346 -33 14 -73 32 -90 40 -16 7 -52 23 -80 35 -93 41
-539 266 -662 333 -106 58 -129 67 -174 67 -29 0 -50 -2 -48 -4z"/>
<path d="M4476 6331 c30 -28 537 -284 789 -398 66 -30 134 -61 150 -69 157
-76 658 -259 923 -337 l52 -16 0 29 c0 28 -4 30 -87 55 -139 42 -411 134 -493
167 -409 163 -785 336 -1136 524 -87 46 -110 54 -155 54 -31 0 -49 -4 -43 -9z"/>
<path d="M4750 6264 c571 -295 1042 -495 1518 -644 l123 -38 -3 31 c-3 27 -9
32 -48 44 -212 65 -535 181 -685 245 -44 20 -125 54 -180 78 -55 23 -116 49
-135 58 -19 8 -167 79 -328 158 -274 135 -296 144 -350 144 l-57 -1 145 -75z"/>
<path d="M4925 6253 c347 -176 725 -341 1070 -469 132 -48 364 -124 381 -124
12 0 14 59 14 340 l0 340 -737 -1 -738 0 175 -87 c97 -48 196 -96 220 -106 37
-16 106 -48 265 -121 17 -7 59 -25 95 -39 120 -46 235 -96 223 -96 -37 0 -517
208 -825 359 -176 86 -190 91 -250 91 l-63 0 170 -87z m251 31 c18 -14 18 -14
-6 -3 -31 14 -36 19 -24 19 6 0 19 -7 30 -16z m759 -412 c-3 -3 -11 0 -18 7
-9 10 -8 11 6 5 10 -3 15 -9 12 -12z m105 -32 c8 -5 11 -10 5 -10 -5 0 -17 5
-25 10 -8 5 -10 10 -5 10 6 0 17 -5 25 -10z m195 -70 c3 -6 -1 -7 -9 -4 -18 7
-21 14 -7 14 6 0 13 -4 16 -10z"/>
<path d="M2492 6302 c-8 -6 29 -24 104 -51 189 -69 409 -164 569 -245 123 -62
483 -265 610 -344 124 -77 496 -276 745 -399 607 -298 1137 -493 1635 -601
200 -44 235 -48 235 -29 0 18 -3 19 -145 47 -418 81 -954 263 -1455 492 -294
135 -813 408 -1080 567 -462 277 -707 399 -1054 527 -123 45 -142 49 -164 36z"/>
<path d="M2416 6261 c-23 -9 -31 -6 119 -58 285 -100 617 -257 900 -425 604
-360 1116 -626 1575 -818 25 -11 77 -32 115 -49 300 -126 778 -270 1110 -334
157 -30 155 -30 155 -7 0 15 -6 20 -25 20 -33 0 -321 61 -465 99 -220 57 -620
192 -765 256 -16 8 -59 25 -94 39 -249 99 -736 337 -1051 514 -281 157 -280
156 -439 251 -383 229 -648 357 -994 482 -117 42 -113 41 -141 30z"/>
<path d="M2330 6220 c-18 -11 -23 -9 95 -49 91 -31 271 -99 320 -121 11 -4 67
-29 125 -55 159 -71 363 -179 595 -317 413 -244 583 -338 934 -513 684 -341
1249 -544 1806 -649 193 -36 185 -36 185 -17 0 14 -24 21 -122 38 -249 44
-504 111 -783 205 -155 51 -443 160 -540 203 -16 7 -70 31 -120 53 -417 184
-865 423 -1460 777 -246 146 -630 324 -903 419 -116 40 -111 39 -132 26z"/>
<path d="M2246 6181 c-24 -9 -17 -13 54 -36 354 -114 717 -282 1090 -505 497
-299 1004 -566 1400 -740 531 -234 1068 -401 1492 -465 118 -18 108 -18 108 0
0 8 -13 16 -32 19 -18 3 -62 11 -98 16 -391 64 -940 232 -1373 421 -236 103
-553 255 -727 349 -47 26 -128 69 -180 97 -121 64 -322 179 -520 298 -353 210
-552 311 -838 426 -103 41 -351 131 -356 128 0 0 -10 -4 -20 -8z"/>
<path d="M2162 6138 c-9 -11 17 -23 135 -62 366 -120 659 -261 1138 -546 337
-200 575 -331 875 -481 758 -378 1409 -601 1993 -684 79 -11 88 -10 85 4 -2
10 -15 17 -33 19 -17 1 -104 16 -195 33 -720 131 -1499 443 -2420 966 -192
110 -251 144 -303 177 -336 214 -840 453 -1176 558 -35 11 -69 22 -76 24 -6 3
-17 -1 -23 -8z"/>
<path d="M2070 6100 c-17 -10 -10 -13 120 -55 320 -103 753 -302 1075 -496
277 -166 373 -222 595 -344 812 -446 1507 -722 2152 -855 121 -25 338 -60 370
-60 4 0 8 7 8 15 0 8 -6 15 -12 15 -37 1 -233 33 -367 60 -749 153 -1589 513
-2601 1116 -309 183 -464 268 -640 350 -298 137 -670 273 -700 254z"/>
<path d="M1981 6053 c-7 -3 65 -31 160 -63 430 -142 726 -281 1154 -542 797
-485 1542 -837 2200 -1037 353 -107 895 -211 895 -172 0 12 -25 21 -58 21 -35
0 -252 35 -367 60 -49 10 -101 21 -115 23 -73 14 -317 83 -475 135 -283 93
-512 183 -845 334 -25 11 -146 71 -270 133 -326 163 -573 300 -985 545 -421
251 -718 391 -1105 521 -144 48 -162 52 -189 42z"/>
<path d="M1890 6013 c0 -5 75 -32 168 -62 227 -74 433 -156 642 -257 204 -99
296 -150 595 -329 412 -247 840 -477 1155 -623 217 -100 305 -138 475 -205
459 -181 909 -305 1275 -352 63 -8 132 -17 153 -21 28 -4 37 -2 37 8 0 11 -34
19 -141 32 -563 69 -1241 291 -1932 631 -356 175 -623 322 -1060 582 -464 277
-799 434 -1201 562 -126 40 -166 48 -166 34z"/>
<path d="M1800 5970 c0 -5 19 -14 43 -20 84 -23 325 -104 437 -147 294 -115
551 -242 837 -415 228 -137 427 -253 551 -321 56 -32 146 -82 201 -112 129
-72 508 -261 641 -320 58 -25 119 -52 135 -60 17 -7 113 -47 215 -88 395 -159
741 -262 1110 -331 194 -36 407 -62 418 -51 13 13 -22 23 -101 29 -274 22
-744 131 -1092 253 -628 220 -1188 495 -2022 996 -441 264 -805 431 -1212 556
-139 43 -161 47 -161 31z"/>
<path d="M1710 5932 c0 -6 26 -18 58 -27 236 -66 545 -180 777 -289 199 -92
339 -168 600 -326 1008 -610 1783 -959 2525 -1139 297 -72 720 -132 720 -102
0 5 -33 12 -72 16 -575 54 -1178 230 -1868 545 -123 56 -447 216 -545 270
-367 199 -404 220 -728 416 -131 79 -240 144 -243 144 -2 0 -22 11 -44 25
-108 68 -433 221 -645 303 -169 66 -214 82 -340 120 -160 49 -195 57 -195 44z"/>
<path d="M1606 5891 c-3 -5 9 -11 27 -15 96 -18 380 -112 577 -189 325 -128
535 -237 970 -502 156 -95 204 -122 415 -242 771 -435 1480 -728 2101 -867
292 -65 694 -118 694 -90 0 7 -37 13 -103 18 -361 23 -880 147 -1342 321 -562
211 -1096 481 -1820 917 -280 169 -321 192 -496 279 -304 151 -575 258 -870
343 -137 39 -145 40 -153 27z"/>
<path d="M1506 5851 c5 -4 32 -14 59 -21 487 -122 991 -344 1510 -665 444
-275 1039 -590 1450 -769 606 -263 1156 -417 1686 -471 172 -17 179 -18 179
-6 0 5 -24 12 -52 15 -29 3 -120 12 -203 21 -842 92 -1835 487 -2990 1190
-450 274 -646 376 -995 515 -271 108 -690 233 -644 191z"/>
<path d="M1390 5820 c-6 -4 46 -21 115 -39 516 -133 945 -320 1492 -651 429
-260 665 -393 993 -559 845 -428 1589 -663 2250 -711 164 -12 150 -12 150 -1
0 5 -46 12 -102 16 -426 27 -900 134 -1378 311 -299 110 -459 179 -780 335
-384 188 -594 304 -1105 612 -593 357 -976 524 -1552 675 -40 10 -77 16 -83
12z"/>
<path d="M1260 5781 c8 -5 31 -12 50 -16 54 -10 326 -84 415 -112 181 -57 462
-171 660 -267 229 -111 328 -166 630 -351 801 -488 1520 -834 2120 -1020 66
-20 140 -43 165 -51 83 -26 334 -83 476 -108 254 -46 614 -79 614 -57 0 7 -22
11 -60 11 -33 0 -128 7 -212 15 -753 76 -1541 353 -2496 877 -173 94 -558 318
-602 348 -81 57 -362 217 -525 300 -350 178 -704 312 -1052 399 -160 41 -215
50 -183 32z"/>
<path d="M1106 5751 c5 -4 57 -18 116 -30 385 -78 840 -242 1233 -445 151 -78
227 -122 625 -362 369 -223 548 -322 900 -498 749 -374 1361 -575 1990 -655
192 -24 420 -37 420 -24 0 6 -63 13 -147 16 -481 20 -1035 153 -1623 389 -269
109 -386 162 -705 324 -274 138 -555 295 -830 462 -380 230 -494 295 -710 402
-331 164 -648 282 -974 365 -249 63 -317 76 -295 56z"/>
<path d="M900 5726 c0 -2 33 -9 73 -16 260 -42 660 -153 912 -252 350 -139
616 -275 1025 -526 1021 -626 1824 -984 2605 -1161 295 -67 875 -127 875 -91
0 6 -43 10 -110 10 -290 0 -773 81 -1135 191 -702 213 -1324 512 -2327 1122
-427 260 -750 413 -1158 548 -285 94 -760 204 -760 175z"/>
<path d="M958 5063 c43 -54 81 -103 85 -110 4 -7 -13 -36 -40 -70 -27 -32 -65
-79 -86 -105 l-38 -48 223 0 223 1 80 101 c44 56 81 105 83 109 2 4 -34 55
-80 113 l-83 106 -223 0 -223 0 79 -97z"/>
<path d="M1521 5093 c29 -38 68 -85 86 -107 l32 -38 -32 -42 c-18 -22 -34 -43
-37 -46 -3 -3 -27 -33 -53 -67 -47 -61 -47 -63 -24 -63 20 0 43 23 111 107
l85 107 -27 36 c-120 160 -137 179 -165 179 l-29 1 53 -67z"/>
<path d="M1590 5130 c11 -16 48 -62 80 -102 33 -40 60 -77 60 -81 0 -5 -37
-54 -81 -110 -73 -91 -79 -102 -60 -105 29 -5 39 5 126 118 l74 97 -85 107
c-68 85 -90 106 -110 106 l-25 0 21 -30z"/>
<path d="M0 4944 l0 -206 326 4 c271 3 327 6 334 18 7 11 3 17 -15 23 l-25 9
0 148 0 148 33 7 32 8 -40 7 -40 6 40 6 40 5 -45 2 c-38 3 -41 4 -20 11 14 4
-120 8 -297 9 l-323 1 0 -206z m553 -191 c-7 -2 -19 -2 -25 0 -7 3 -2 5 12 5
14 0 19 -2 13 -5z"/>
<path d="M1300 3497 c-96 -34 -157 -73 -230 -147 -111 -111 -163 -254 -141
-388 22 -135 61 -186 294 -384 121 -102 177 -166 177 -200 0 -56 -45 -78 -156
-78 -98 0 -115 8 -142 69 -48 104 -131 134 -190 67 -73 -84 -48 -173 87 -306
78 -77 178 -133 282 -157 103 -24 358 -22 894 5 237 12 486 24 555 27 1350 55
2174 80 2350 71 209 -12 347 -51 386 -111 12 -19 20 -23 29 -15 32 26 47 191
22 240 -16 32 -105 76 -183 89 -76 14 -335 14 -474 1 -292 -27 -829 -55 -1320
-70 -758 -22 -1555 -72 -1920 -120 -41 -5 -120 -9 -175 -9 -158 2 -201 19
-113 46 61 18 134 76 159 125 17 33 20 53 16 96 -9 85 -53 146 -220 304 -171
163 -200 205 -200 288 0 74 30 137 102 213 113 119 283 205 421 214 84 5 108
-4 92 -33 -6 -11 -63 -71 -127 -134 -64 -63 -134 -142 -156 -175 -43 -65 -44
-72 -19 -190 9 -43 50 -105 70 -105 4 0 10 24 13 54 3 29 14 70 24 91 11 20
78 96 150 168 150 152 173 193 153 268 -8 30 -26 58 -59 89 -114 111 -299 150
-451 97z"/>
<path d="M3160 3060 c-51 -9 -86 -36 -110 -84 -35 -73 -20 -142 42 -190 106
-80 253 -6 251 126 -1 98 -84 165 -183 148z m90 -92 c27 -29 27 -91 0 -118
-43 -43 -112 -32 -138 23 -28 58 12 117 78 117 27 0 45 -6 60 -22z"/>
<path d="M2520 2910 l0 -150 35 0 c35 0 35 0 35 45 l0 45 41 0 c57 0 109 51
109 105 0 29 -8 45 -34 71 -33 33 -37 34 -110 34 l-76 0 0 -150z m141 64 c19
-23 -1 -48 -40 -52 -30 -3 -31 -2 -31 32 0 33 2 36 29 36 16 0 34 -7 42 -16z"/>
<path d="M2780 2911 l0 -151 35 0 35 0 0 50 c0 66 20 66 57 0 26 -46 31 -50
66 -50 l38 0 -29 53 -30 52 24 28 c34 39 33 95 -3 133 -25 27 -33 29 -110 33
l-83 3 0 -151z m145 44 c0 -27 -3 -30 -37 -33 -38 -3 -38 -3 -38 33 0 36 0 36
38 33 34 -3 37 -6 37 -33z"/>
<path d="M3390 2911 l0 -151 35 0 c35 0 35 0 35 45 l0 45 41 0 c33 0 47 6 75
34 45 45 47 92 5 138 -28 31 -33 33 -110 36 l-81 4 0 -151z m141 63 c19 -23
-1 -48 -40 -52 -30 -3 -31 -2 -31 32 0 33 2 36 29 36 16 0 34 -7 42 -16z"/>
<path d="M3650 2910 l0 -150 35 0 35 0 0 150 0 150 -35 0 -35 0 0 -150z"/>
<path d="M3770 2910 l0 -150 95 0 95 0 0 35 0 35 -61 0 c-57 0 -60 1 -57 23 3
19 10 22 56 25 50 3 52 4 52 32 0 28 -2 29 -52 32 -47 3 -53 6 -54 26 -1 20 3
22 57 22 l59 0 0 35 0 35 -95 0 -95 0 0 -150z"/>
<path d="M4010 2909 l0 -151 89 4 c87 3 91 4 126 38 59 57 66 134 17 199 -33
44 -77 61 -162 61 l-70 0 0 -151z m153 70 c31 -16 37 -28 37 -71 0 -51 -28
-78 -80 -78 l-40 0 0 73 c0 41 3 77 7 80 10 11 52 8 76 -4z"/>
<path d="M4377 3053 c-3 -5 -23 -64 -45 -133 -22 -69 -44 -133 -47 -142 -6
-15 -1 -18 33 -18 32 0 42 4 47 20 5 17 15 20 60 20 45 0 55 -3 60 -20 5 -15
15 -20 45 -20 l39 0 -41 123 c-62 191 -54 177 -104 177 -23 0 -45 -3 -47 -7z
m72 -170 c1 -17 -4 -21 -24 -18 -14 1 -27 4 -29 6 -1 2 4 27 12 54 l15 50 13
-35 c7 -19 13 -45 13 -57z"/>
<path d="M4600 2910 l0 -150 78 0 c108 0 149 24 179 106 14 38 3 95 -25 133
-31 43 -79 61 -159 61 l-73 0 0 -150z m168 60 c16 -15 22 -33 22 -60 0 -53
-27 -80 -80 -80 l-40 0 0 73 c0 41 3 77 7 80 14 15 70 6 91 -13z"/>
<path d="M4910 2910 l0 -150 96 0 95 0 -3 33 c-3 32 -4 32 -60 35 -54 3 -58 5
-58 27 0 23 4 25 50 25 49 0 50 1 50 30 0 29 -1 30 -50 30 -47 0 -50 2 -50 25
0 24 3 25 61 25 l60 0 -3 33 -3 32 -92 3 -93 3 0 -151z"/>
<path d="M5172 3042 c-30 -23 -40 -83 -19 -116 10 -14 37 -31 66 -41 52 -17
77 -37 66 -55 -11 -17 -64 -11 -82 9 -16 20 -22 19 -62 -7 -22 -16 4 -48 53
-67 85 -33 166 7 166 80 0 43 -20 62 -92 90 -29 12 -54 28 -56 37 -5 25 35 33
64 13 23 -15 27 -15 49 -1 29 19 25 36 -14 59 -38 22 -109 22 -139 -1z"/>
<path d="M2094 2978 c-23 -61 -28 -89 -29 -168 l-1 -95 -74 -144 c-69 -133
-100 -176 -100 -138 0 9 21 81 46 162 l46 147 -17 38 c-19 42 -60 87 -68 73
-2 -4 -14 -37 -26 -73 -27 -83 -162 -352 -178 -358 -22 -7 -15 32 32 177 l45
140 -19 43 c-10 24 -28 51 -39 62 -21 18 -21 18 -37 -20 -36 -84 -87 -282 -92
-359 -5 -71 -3 -83 16 -106 45 -57 93 -35 153 69 l33 57 5 -50 c6 -57 14 -74
50 -98 33 -23 35 -22 75 20 37 40 94 144 140 258 16 39 30 72 32 74 6 9 53
-43 53 -58 -1 -9 -9 -41 -20 -71 -21 -59 -26 -150 -10 -180 13 -24 72 -60 98
-60 28 0 76 58 122 150 47 94 100 224 100 246 0 37 -28 -1 -100 -134 -90 -168
-115 -203 -128 -183 -11 16 -6 36 38 157 26 69 30 93 23 118 -8 27 -13 31 -48
34 -83 5 -88 9 -82 52 3 21 19 70 37 109 29 62 31 73 21 103 -12 35 -45 78
-60 78 -5 0 -21 -33 -37 -72z"/>
<path d="M3255 2615 c-73 -25 -121 -113 -96 -177 44 -115 227 -73 248 57 14
90 -63 151 -152 120z m80 -31 c25 -10 46 -59 39 -92 -8 -40 -53 -81 -96 -88
-73 -12 -119 74 -74 137 29 42 86 60 131 43z"/>
<path d="M4814 2618 c-38 -10 -56 -30 -56 -63 0 -33 16 -51 68 -75 31 -13 44
-25 44 -39 0 -41 -78 -56 -104 -20 -9 14 -21 19 -31 15 -22 -8 -3 -44 31 -56
69 -26 134 6 134 66 0 32 -4 36 -55 61 -55 27 -67 47 -43 71 17 17 58 15 79
-4 23 -20 43 -10 29 16 -13 25 -59 38 -96 28z"/>
<path d="M2566 2518 c-10 -57 -20 -111 -22 -120 -4 -13 0 -18 13 -18 16 0 22
15 36 108 21 128 21 132 4 132 -9 0 -19 -33 -31 -102z"/>
<path d="M2666 2603 c-7 -23 -36 -194 -36 -210 0 -7 6 -13 14 -13 9 0 18 22
26 68 20 115 18 115 66 19 64 -126 69 -122 104 77 13 76 13 76 -4 76 -14 0
-21 -25 -41 -145 l-7 -40 -46 93 c-45 90 -65 110 -76 75z"/>
<path d="M2905 2608 c-5 -16 -35 -202 -35 -217 0 -6 6 -11 14 -11 10 0 18 22
26 73 18 115 23 120 49 49 13 -34 27 -62 31 -62 4 0 27 25 50 55 24 31 45 53
48 51 4 -5 -12 -108 -24 -148 -4 -13 0 -18 13 -18 16 0 21 18 39 120 20 115
20 120 2 120 -10 0 -38 -26 -65 -60 -25 -33 -49 -60 -53 -60 -4 0 -18 27 -33
60 -24 57 -52 78 -62 48z"/>
<path d="M3456 2528 c-9 -51 -19 -105 -22 -120 l-6 -28 69 0 c76 0 107 14 117
55 4 14 2 34 -4 44 -7 14 -6 27 5 48 20 37 19 49 -5 73 -15 15 -33 20 -79 20
l-59 0 -16 -92z m132 30 c4 -30 -15 -43 -65 -46 -29 -2 -33 1 -33 22 0 48 10
57 54 54 36 -3 41 -6 44 -30z m-7 -89 c13 -20 11 -27 -11 -49 -13 -13 -33 -20
-60 -20 -37 0 -40 2 -40 28 0 31 9 47 30 54 25 9 72 1 81 -13z"/>
<path d="M3666 2514 c-9 -58 -20 -112 -23 -120 -3 -9 2 -14 14 -14 16 0 21 15
37 108 10 59 21 113 23 120 3 7 -3 12 -14 12 -17 0 -22 -14 -37 -106z"/>
<path d="M3770 2617 c0 -2 -9 -53 -20 -113 -11 -60 -20 -112 -20 -116 0 -5 32
-8 70 -8 40 0 70 4 70 10 0 6 -22 10 -50 10 -58 0 -57 -3 -35 113 19 98 19
107 0 107 -8 0 -15 -1 -15 -3z"/>
<path d="M3940 2618 c0 -2 -9 -55 -20 -118 -11 -63 -20 -116 -20 -117 0 -2 7
-3 15 -3 16 0 17 4 40 129 19 103 19 111 0 111 -8 0 -15 -1 -15 -2z"/>
<path d="M4033 2506 c-35 -62 -63 -116 -63 -120 0 -17 32 -3 42 19 10 23 17
25 70 25 55 0 58 -1 58 -25 0 -18 5 -25 20 -25 22 0 22 -13 -10 150 -25 123
-38 121 -117 -24z m91 -3 l6 -43 -40 0 c-22 0 -40 3 -40 6 0 4 12 28 27 56 29
53 36 51 47 -19z"/>
<path d="M4236 2518 c-10 -57 -20 -111 -23 -121 -4 -14 0 -18 13 -15 13 2 21
17 27 46 8 41 10 43 39 40 27 -3 34 -9 47 -45 10 -28 21 -43 33 -43 16 0 16 2
-1 42 l-18 43 29 26 c20 20 28 36 28 62 0 48 -28 67 -101 67 l-56 0 -17 -102z
m128 66 c23 -9 21 -61 -3 -74 -11 -5 -36 -10 -55 -10 -31 0 -36 3 -36 23 0 51
11 67 45 67 19 0 40 -3 49 -6z"/>
<path d="M4465 2608 c-6 -22 -35 -192 -35 -210 0 -10 6 -18 13 -18 10 0 19 32
31 103 10 56 20 110 22 120 6 20 -24 25 -31 5z"/>
<path d="M4592 2568 c-104 -185 -105 -188 -84 -188 10 0 24 11 30 25 10 22 18
25 67 25 50 0 55 -2 61 -25 3 -14 12 -25 20 -25 18 0 18 -5 -7 128 -25 134
-40 144 -87 60z m57 -80 c1 -26 -2 -28 -39 -28 l-40 0 21 43 c35 68 43 75 50
41 4 -16 7 -41 8 -56z"/>
<path d="M3 1903 c4 -6 50 -13 104 -17 469 -34 1146 -228 1756 -505 460 -208
828 -409 1511 -826 266 -162 576 -316 871 -432 127 -50 354 -123 379 -122 14
0 16 2 6 5 -8 3 -78 26 -155 51 -376 122 -775 312 -1175 559 -1030 635 -1816
994 -2591 1184 -235 57 -721 128 -706 103z"/>
<path d="M5 1841 c-3 -6 0 -11 7 -11 7 0 71 -7 143 -15 424 -46 935 -187 1445
-400 495 -206 933 -436 1609 -844 435 -263 757 -422 1094 -540 49 -17 96 -31
105 -30 16 0 0 7 -163 66 -146 54 -425 177 -564 250 -163 85 -243 131 -491
283 -840 514 -1562 859 -2209 1054 -282 85 -572 148 -806 176 -50 5 -106 13
-126 16 -22 3 -40 1 -44 -5z"/>
<path d="M15 1770 c11 -4 67 -13 125 -20 369 -41 870 -175 1300 -347 540 -216
1003 -456 1735 -896 165 -100 392 -227 505 -283 206 -103 491 -224 526 -224
11 0 -57 32 -151 70 -236 97 -536 248 -755 380 -102 62 -230 139 -285 173
-885 534 -1684 887 -2390 1057 -257 62 -699 127 -610 90z"/>
<path d="M0 1711 c0 -5 44 -14 98 -20 391 -48 885 -181 1317 -355 554 -224
1039 -477 1795 -935 276 -167 753 -402 815 -401 11 0 -16 15 -60 33 -257 107
-492 230 -835 437 -1015 615 -1798 970 -2525 1145 -150 36 -284 62 -469 90
-115 17 -136 18 -136 6z"/>
<path d="M0 1651 c0 -12 10 -15 160 -36 549 -78 1214 -307 1918 -659 183 -91
530 -279 612 -331 22 -14 42 -25 44 -25 2 0 136 -79 298 -176 409 -246 761
-429 811 -422 16 2 5 10 -38 27 -156 64 -432 210 -657 347 -198 121 -356 214
-543 319 -66 38 -145 82 -175 100 -86 49 -563 288 -680 340 -58 26 -123 55
-145 65 -82 37 -346 140 -498 194 -296 105 -630 192 -912 236 -72 11 -145 23
-162 26 -20 3 -33 1 -33 -5z"/>
<path d="M0 1581 c0 -5 24 -12 53 -16 124 -16 385 -69 542 -110 500 -128 1093
-369 1665 -675 63 -34 149 -80 190 -102 107 -58 298 -169 580 -338 345 -206
598 -340 642 -340 13 1 -36 30 -115 70 -191 96 -256 132 -542 303 -312 187
-408 242 -610 352 -38 21 -92 50 -120 65 -98 54 -412 210 -545 271 -560 256
-1044 414 -1530 500 -176 31 -210 34 -210 20z"/>
<path d="M2 1519 c3 -8 36 -19 84 -26 598 -97 1193 -302 1888 -650 343 -171
603 -316 1041 -578 277 -166 463 -265 496 -265 21 1 18 4 -16 21 -142 73 -361
196 -483 271 -448 277 -1103 625 -1447 770 -574 241 -939 358 -1360 432 -82
15 -163 29 -179 32 -21 5 -27 3 -24 -7z"/>
<path d="M0 1450 c0 -5 10 -12 23 -14 12 -3 87 -16 167 -31 516 -94 1125 -312
1755 -627 326 -164 538 -281 935 -518 347 -207 444 -260 476 -260 23 0 4 13
-81 58 -60 32 -211 119 -335 194 -402 243 -619 363 -970 539 -653 326 -1177
517 -1730 629 -205 42 -240 46 -240 30z"/>
<path d="M14 1375 c11 -8 30 -15 42 -15 13 0 90 -14 171 -31 533 -111 1076
-311 1718 -635 236 -118 542 -284 685 -369 480 -288 545 -325 574 -325 30 0
29 1 -19 27 -28 14 -165 95 -305 178 -1084 647 -1894 997 -2679 1156 -79 16
-158 29 -175 29 -29 -1 -30 -1 -12 -15z"/>
<path d="M5 1320 c-8 -13 -4 -14 150 -45 788 -159 1622 -521 2708 -1174 104
-62 178 -101 195 -101 l27 0 -30 19 c-710 436 -1372 777 -1925 993 -335 130
-677 232 -982 293 -148 29 -135 28 -143 15z"/>
<path d="M0 1250 c0 -13 -4 -12 155 -45 751 -157 1656 -551 2645 -1150 57 -35
101 -55 116 -53 17 2 -12 24 -119 88 -1030 616 -1864 978 -2639 1145 -129 27
-158 30 -158 15z"/>
<path d="M0 1186 c0 -16 28 -25 135 -46 451 -89 1083 -323 1690 -627 229 -115
643 -343 853 -470 47 -28 83 -43 99 -41 21 3 12 11 -59 52 -387 228 -664 379
-988 537 -578 283 -1102 474 -1590 579 -52 11 -105 22 -117 25 -16 4 -23 1
-23 -9z"/>
<path d="M0 1116 c0 -15 31 -26 110 -41 73 -14 280 -67 390 -101 596 -182
1184 -447 1893 -850 131 -75 228 -124 244 -124 26 0 27 1 8 14 -11 7 -101 60
-199 116 -636 364 -1233 643 -1733 809 -279 93 -406 127 -690 187 -16 3 -23 0
-23 -10z"/>
<path d="M0 1045 c0 -8 10 -17 23 -20 732 -164 1346 -416 2327 -958 30 -17 67
-39 82 -49 17 -12 40 -18 59 -16 28 3 8 16 -167 114 -683 383 -1147 595 -1704
781 -148 49 -572 163 -606 163 -8 0 -14 -7 -14 -15z"/>
<path d="M0 975 c0 -8 12 -17 28 -21 675 -154 1322 -420 2201 -903 64 -36 103
-51 122 -49 24 2 -7 23 -178 118 -736 408 -1403 685 -2020 840 -138 34 -153
36 -153 15z"/>
<path d="M0 905 c0 -8 12 -18 28 -21 413 -99 752 -215 1212 -417 208 -91 585
-277 794 -392 104 -57 146 -75 169 -73 28 3 19 10 -93 72 -141 79 -604 314
-725 368 -44 20 -111 50 -148 67 -38 17 -70 31 -73 31 -2 0 -23 9 -47 19 -220
102 -692 262 -984 336 -118 29 -133 30 -133 10z"/>
<path d="M0 835 c0 -8 17 -19 43 -25 415 -106 797 -241 1217 -430 147 -66 532
-256 661 -326 70 -39 109 -54 136 -54 l38 0 -55 31 c-113 64 -580 298 -732
367 -356 163 -706 293 -1048 391 -229 66 -260 71 -260 46z"/>
<path d="M2 764 c2 -10 12 -20 23 -22 33 -5 233 -62 360 -102 387 -123 774
-284 1239 -516 203 -102 255 -124 285 -122 32 3 -1 21 -299 170 -184 91 -400
194 -480 228 -80 34 -158 67 -175 75 -221 96 -779 279 -918 302 -34 5 -39 4
-35 -13z"/>
<path d="M0 703 c1 -21 23 -32 116 -57 233 -61 634 -203 919 -326 204 -88 259
-114 469 -218 169 -83 216 -102 245 -100 33 3 21 11 -149 97 -501 254 -937
429 -1408 566 -150 44 -192 52 -192 38z"/>
<path d="M5132 662 c-15 -2 -51 -39 -103 -103 -43 -55 -79 -105 -79 -110 0 -6
27 -45 59 -87 101 -131 105 -134 130 -130 23 3 19 10 -57 105 -45 57 -82 105
-82 108 0 6 54 79 121 163 23 29 40 54 38 55 -2 2 -14 1 -27 -1z"/>
<path d="M5227 662 c-10 -2 -56 -51 -103 -109 -74 -92 -83 -108 -71 -122 7 -9
46 -58 86 -108 58 -73 79 -93 98 -93 19 0 23 3 16 13 -6 6 -42 53 -81 104 -40
50 -72 95 -72 101 0 8 71 104 90 122 3 3 20 24 37 47 33 42 33 53 0 45z"/>
<path d="M5321 554 l-83 -106 23 -31 c12 -18 52 -67 88 -110 l64 -77 219 0
219 0 -77 98 c-42 53 -81 102 -85 108 -5 6 23 51 71 113 44 56 80 104 80 106
0 3 -98 5 -217 5 l-218 -1 -84 -105z"/>
<path d="M6080 641 c0 -5 6 -12 13 -14 10 -4 10 -6 0 -6 -16 -1 -18 -81 -3
-81 6 0 10 -46 10 -119 0 -116 1 -120 23 -124 12 -2 -3 -6 -33 -7 l-55 -3 65
-7 65 -7 -55 -2 -55 -3 60 -14 c33 -7 108 -13 168 -14 l107 0 0 205 0 205
-155 0 c-87 0 -155 -4 -155 -9z"/>
<path d="M6 632 c-10 -17 12 -30 89 -52 383 -108 856 -290 1279 -494 139 -67
188 -86 220 -85 39 0 32 5 -114 78 -243 121 -663 307 -760 336 -14 4 -38 13
-55 21 -29 13 -106 40 -250 89 -106 36 -375 115 -390 115 -8 0 -16 -4 -19 -8z"/>
<path d="M3 551 c-1 -16 13 -23 80 -41 298 -79 804 -273 1147 -438 103 -49
148 -66 190 -69 l55 -4 -60 32 c-98 52 -438 206 -574 261 -288 115 -514 194
-743 259 -84 24 -93 24 -95 0z"/>
<path d="M0 480 c0 -15 12 -23 58 -35 305 -86 804 -274 1091 -414 47 -23 78
-31 115 -30 l51 0 -55 27 c-284 140 -760 330 -1015 407 -50 14 -117 35 -149
46 -77 24 -96 24 -96 -1z"/>
<path d="M3 408 c2 -13 14 -25 28 -29 273 -80 571 -188 850 -308 134 -57 175
-71 215 -70 l49 1 -85 40 c-244 115 -572 242 -903 347 -149 48 -158 49 -154
19z"/>
<path d="M5 339 c2 -12 6 -23 7 -24 2 -2 73 -25 158 -53 228 -75 513 -181 637
-237 38 -18 70 -25 111 -24 l57 1 -55 25 c-215 99 -765 302 -887 328 -29 6
-32 4 -28 -16z"/>
<path d="M2 266 c2 -21 21 -29 203 -91 110 -37 262 -91 337 -121 116 -46 147
-54 200 -53 l63 0 -195 78 c-178 71 -576 211 -600 211 -5 0 -9 -11 -8 -24z"/>
<path d="M9 217 c-5 -11 -5 -36 0 -44 3 -6 59 -27 125 -48 65 -21 171 -57 234
-81 95 -36 126 -44 181 -43 l66 0 -125 50 c-149 59 -477 172 -481 166z"/>
<path d="M9 138 c-13 -43 -14 -43 153 -97 107 -36 137 -41 194 -39 l68 3 -65
22 c-35 12 -124 42 -197 67 -121 42 -151 51 -153 44z"/>
<path d="M5 60 c-10 -15 14 -49 38 -55 12 -3 56 -5 97 -3 l75 3 -97 33 c-111
36 -105 35 -113 22z"/>
</g>
</svg>
